<?xml version="1.0" encoding="UTF-8"?>
<svg id="_圖層_2" data-name="圖層 2" xmlns="http://www.w3.org/2000/svg" viewBox="0 0 38.92 14.64">
  <defs>
    <style>
      .cls-1 {
        fill: #b7c497;
      }
    </style>
  </defs>
  <g id="_圖層_2-2" data-name="圖層 2">
    <g>
      <path class="cls-1" d="M5.92,14.42s-.07-.02-.09-.06l-.04-.09c.06-.23,.08-.49,.04-.85-.04-.38-.15-.96-.33-1.73l-.87-3.82c-.41-.01-.79-.02-1.14-.02-.49,0-.93,.01-1.31,.03L.96,12.87c-.07,.26-.05,.47,.07,.64,.12,.18,.36,.33,.72,.45,.04,.02,.07,.06,.07,.11l-.02,.17s-.02,.05-.04,.07c-.02,.01-.04,.02-.06,.02,0,0,0,0-.01,0-.44-.06-.83-.09-1.16-.09-.12,0-.24,0-.35,.01,0,0,0,0,0,0-.04,0-.07-.02-.09-.05-.03-.05-.05-.11-.08-.21L3.28,1.1c.14-.17,.27-.41,.42-.77,.02-.04,.05-.06,.09-.06,.05,0,.14,.03,.15,.08l2.96,12.47c.12,.53,.38,.9,.76,1.11,.03,.02,.05,.05,.05,.09v.17s-.01,.06-.04,.08c-.02,.02-.04,.02-.06,.02,0,0-.01,0-.02,0-.14-.03-.29-.04-.46-.04-.11,0-.23,0-.35,.02-.32,.03-.6,.08-.84,.15,0,0-.02,0-.03,0ZM2.37,7.15c.24,0,.52,.01,.85,.01,.36,0,.77,0,1.23-.02L3.45,2.77l-1.08,4.38Z"/>
      <path class="cls-1" d="M9.11,14.44s-.03,0-.04-.01c-.02-.01-.04-.03-.05-.06l-.03-.09c.07-.24,.1-.56,.1-1.03V3.33c0-.42-.01-.77-.03-1.05-.02-.27-.06-.49-.12-.65-.05-.14-.12-.24-.2-.3-.09-.06-.18-.08-.28-.08-.16,0-.19,0-.2,0,0,0-.01,0-.02,0-.02,0-.04,0-.06-.02-.02-.02-.04-.04-.04-.07l-.02-.27s.03-.09,.08-.11c.43-.1,.86-.19,1.29-.26,.43-.08,.72-.12,.87-.13,.15,0,.3-.01,.44-.01,.4,0,.76,.04,1.07,.13,.32,.09,.59,.24,.8,.44s.38,.47,.5,.8c.11,.32,.17,.71,.17,1.17,0,.39-.04,.78-.13,1.13-.09,.36-.21,.69-.36,1-.15,.31-.34,.59-.55,.84-.18,.22-.38,.41-.58,.57,.24,.07,.48,.17,.72,.31,.28,.16,.53,.39,.74,.68,.21,.29,.39,.65,.52,1.06,.13,.42,.19,.92,.19,1.5,0,.68-.07,1.28-.22,1.8-.15,.52-.35,.96-.59,1.31-.24,.35-.52,.62-.83,.8-.31,.18-.63,.27-.96,.27l-1.26,.07c-.19,.01-.35,.03-.5,.06-.14,.03-.26,.06-.36,.1-.01,0-.02,0-.03,0Zm1.83-.9s.09,0,.14,0c.5,0,.89-.23,1.21-.72,.35-.54,.53-1.37,.53-2.49,0-.58-.07-1.11-.19-1.56-.13-.44-.31-.8-.53-1.07-.22-.26-.48-.46-.77-.59-.26-.12-.55-.18-.86-.18-.06,0-.19-.04-.19-.1v-.4c0-.05,.04-.1,.1-.1,.32-.01,.62-.13,.9-.36,.29-.23,.53-.59,.73-1.07,.2-.48,.3-1.05,.3-1.7,0-.55-.06-.98-.19-1.28-.12-.28-.29-.49-.49-.6-.19-.1-.4-.16-.64-.16-.33,.01-.6,.05-.88,.11,.02,.18,.02,.36,.02,.53V13.47l.83,.07Z"/>
      <path class="cls-1" d="M18.76,14.64c-.55,0-1.07-.17-1.54-.51-.46-.34-.87-.82-1.21-1.44-.34-.61-.61-1.4-.8-2.33-.19-.93-.29-1.97-.29-3.1,0-1,.1-1.96,.31-2.85,.2-.89,.48-1.67,.82-2.3,.34-.64,.76-1.15,1.23-1.53,.48-.38,.99-.58,1.51-.58,1.23,0,2.19,.69,2.85,2.04,.65,1.33,.98,3.19,.98,5.53,0,.99-.1,1.94-.3,2.81-.2,.88-.48,1.63-.82,2.24-.35,.62-.76,1.11-1.23,1.46-.48,.36-.98,.54-1.51,.54Zm-.09-13.86c-.41,0-.79,.17-1.12,.5-.34,.34-.62,.81-.84,1.4-.22,.59-.39,1.28-.51,2.04-.12,.77-.18,1.59-.18,2.45,0,.91,.06,1.76,.17,2.52,.11,.76,.26,1.41,.45,1.92,.19,.52,.41,.96,.66,1.31,.25,.35,.51,.61,.78,.77,.27,.16,.54,.24,.83,.24,.41,0,.79-.16,1.11-.48,.34-.33,.61-.78,.83-1.35,.21-.58,.38-1.25,.49-2,.11-.75,.17-1.57,.17-2.43,0-1.12-.08-2.15-.24-3.05-.16-.9-.38-1.63-.65-2.18-.27-.55-.58-.97-.91-1.25-.33-.28-.68-.42-1.04-.42Z"/>
      <path class="cls-1" d="M26.82,14.64c-.26,0-.52-.05-.78-.16-.26-.11-.5-.29-.71-.55-.2-.25-.37-.59-.5-1.01-.13-.41-.19-.93-.19-1.55V3.33c0-.41-.01-.75-.03-1.03-.02-.27-.06-.49-.11-.65-.05-.15-.12-.25-.2-.31-.09-.06-.18-.09-.28-.09-.16,0-.2,0-.2,0,0,0-.01,0-.02,0-.02,0-.04,0-.06-.02-.02-.02-.04-.04-.04-.07l-.02-.18s.02-.08,.05-.1c.6-.31,1.18-.47,1.73-.47,.05,0,.09,.03,.1,.08,.07,.36,.11,.73,.11,1.1V10.19c0,.68,.04,1.26,.11,1.71,.07,.45,.18,.81,.31,1.08,.13,.26,.28,.44,.45,.55,.17,.11,.36,.16,.57,.16s.41-.05,.63-.15c.22-.1,.45-.24,.67-.42,.22-.18,.45-.4,.66-.65,.22-.25,.42-.52,.61-.81l-.02-8.33c0-.41-.01-.75-.03-1.03-.02-.27-.06-.49-.11-.65-.05-.15-.12-.25-.2-.31-.09-.06-.18-.09-.28-.09-.16,0-.2,0-.2,0,0,0-.01,0-.02,0-.02,0-.04,0-.06-.02-.02-.02-.04-.04-.04-.07l-.02-.18s.02-.08,.05-.1c.6-.31,1.18-.47,1.73-.47,.05,0,.09,.03,.1,.08,.08,.34,.12,.71,.12,1.1V12.46c0,.25,.01,.47,.04,.64,.03,.17,.07,.31,.13,.43,.06,.11,.13,.2,.23,.27,.1,.07,.23,.13,.38,.18,.05,.02,.08,.07,.07,.12l-.05,.23s-.02,.05-.04,.06c-.02,.01-.04,.02-.05,.02,0,0-.02,0-.02,0-.21-.05-.4-.09-.55-.11-.15-.02-.28-.04-.38-.04-.09,0-.2,.01-.32,.04-.12,.02-.25,.06-.4,.11-.01,0-.02,0-.03,0-.04,0-.08-.03-.09-.07,0-.02-.04-.14-.03-.16,.07-.17,.1-.49,.1-.96v-.49c-.53,.63-1.01,1.1-1.45,1.4-.49,.34-.96,.51-1.4,.51Z"/>
      <path class="cls-1" d="M35.09,14.4s-.08-.03-.09-.07c0-.02-.04-.14-.03-.16,.07-.17,.1-.49,.1-.96V1.14c-.25,0-.53,.02-.85,.04-.34,.02-.73,.06-1.17,.1-.02,.18-.02,.37-.02,.57,0,.33,.02,.7,.07,1.12,0,.04-.02,.08-.05,.1l-.18,.09s-.03,.01-.05,.01c-.01,0-.03,0-.04,0-.03-.01-.05-.04-.06-.07l-.5-2.28,.07-.27s.04-.06,.08-.07c.52-.08,1.03-.14,1.53-.17,.49-.03,.98-.05,1.46-.05s1.01,.02,1.57,.06c.56,.04,1.18,.1,1.85,.18,.04,0,.07,.03,.08,.07l.06,.2-.5,2.34s-.03,.06-.06,.07c-.01,0-.03,0-.04,0-.02,0-.03,0-.05-.01l-.18-.09s-.06-.06-.05-.1c.02-.22,.04-.42,.06-.61,.01-.19,.02-.37,.02-.53,0-.2,0-.38-.02-.54-.42-.05-.8-.08-1.14-.1-.32-.02-.61-.04-.86-.04V12.46c0,.25,.01,.47,.04,.64,.03,.17,.07,.31,.13,.43,.06,.11,.13,.2,.23,.27,.1,.07,.23,.13,.38,.18,.05,.01,.08,.06,.07,.11l-.04,.23s-.02,.05-.04,.06c-.02,.01-.04,.02-.05,.02,0,0-.02,0-.02,0-.21-.05-.4-.09-.55-.11-.15-.02-.28-.04-.38-.04-.09,0-.2,.01-.32,.04-.12,.02-.25,.06-.4,.11-.01,0-.02,0-.03,0Z"/>
    </g>
  </g>
</svg>